<?xml version="1.0" encoding="UTF-8"?>
<svg width="256px" height="256px" viewBox="0 0 256 256" version="1.1" xmlns="http://www.w3.org/2000/svg" xmlns:xlink="http://www.w3.org/1999/xlink">
    <!-- Generator: Sketch 63.1 (92452) - https://sketch.com -->
    <title>Profile Picture</title>
    <desc>Created with Sketch.</desc>
    <g id="Profile-Picture" stroke="none" stroke-width="1" fill="none" fill-rule="evenodd">
        <rect id="Rectangle" fill="#FFFFFF" x="0" y="0" width="256" height="261"></rect>
        <g id="Group" transform="translate(101.000000, 52.000000)" fill="#1971C2">
            <path d="M114.852414,188.4 C130.227126,188.4 144.902989,184.449938 158.88,176.549813 L158.88,176.549813 L158.88,147.081648 C154.896552,150.437453 151.105287,153.30387 147.506207,155.680899 C143.907126,158.057928 140.430345,159.945568 137.075862,161.34382 C131.065747,164.140325 123.762759,165.538577 115.166897,165.538577 C98.5342529,165.538577 84.4873563,159.700874 73.0262069,148.025468 C61.5650575,136.350062 55.8344828,122.017978 55.8344828,105.029213 C55.8344828,87.8307116 61.5650575,73.2888889 73.0262069,61.4037453 C84.4174713,49.4486891 98.4294253,43.471161 115.062069,43.471161 C130.157241,43.471161 144.763218,49.3787765 158.88,61.1940075 L158.88,61.1940075 L158.88,32.2501873 C145.322299,24.3500624 131.275402,20.4 116.73931,20.4 C90.1131034,20.4 68.4137931,30.2926342 51.6413793,50.0779026 C38.0137931,66.2277154 31.2,84.6147316 31.2,105.238951 C31.2,128.2402 39.3416092,147.885643 55.6248276,164.175281 C71.977931,180.325094 91.7204598,188.4 114.852414,188.4 Z" id="C" fill-rule="nonzero" transform="translate(95.040000, 104.400000) rotate(27.000000) translate(-95.040000, -104.400000) "></path>
            <circle id="Oval" cx="85" cy="97" r="21"></circle>
        </g>
        <path d="M63.6342895,130 L83.2045372,102.187175 L80.6180336,128.031196 L87.116805,128.031196 L91,82 L67.5250284,115.275563 L61.6603581,82 L41,128.031196 L47.5531545,128.031196 L58.7121069,102.159445 L63.6342895,130 Z M120.055896,128 L121.608201,121.900907 L104.857497,121.900907 L108.514983,107.53044 L124.77859,107.53044 L126.330895,101.431347 L110.067288,101.431347 L112.696991,91.0990933 L129.447695,91.0990933 L131,85 L107.944104,85 L97,128 L120.055896,128 Z" id="ME" fill="#4DABF7" fill-rule="nonzero"></path>
        <path d="M26.548295,72 C30.6744365,72 34.8820794,70.9184353 39.1712236,68.7553059 L41.1784084,60.6866417 C39.8807864,61.6054931 38.6680752,62.3903454 37.5402749,63.0411985 C36.4124745,63.6920516 35.3508298,64.2089055 34.3553406,64.5917603 C32.5519142,65.3574698 30.4967569,65.7403246 28.1898687,65.7403246 C23.7261337,65.7403246 20.3539681,64.141906 18.0733718,60.9450687 C15.7927755,57.7482314 15.2310609,53.82397 16.3882279,49.1722846 C17.5596808,44.463171 20.0881032,40.4814815 23.9734948,37.227216 C27.8448933,33.9538077 32.01246,32.3171036 36.476195,32.3171036 C40.5273157,32.3171036 44.0447609,33.934665 47.0285303,37.1697878 L49,29.2446941 C45.8995998,27.0815647 42.3988601,26 38.4977808,26 C31.3520539,26 24.8547442,28.7086975 19.0058517,34.1260924 C14.2485669,38.5480649 11.167529,43.5826051 9.76273777,49.2297129 C8.19603844,55.5276737 9.0428948,60.9067832 12.3033069,65.3670412 C15.5919981,69.7890137 20.3403275,72 26.548295,72 Z M49.1905396,71 L56.8455633,60.2595978 L75.7816059,60.2595978 L77.6948701,71 L85,71 L75.822903,24 L42,71 L49.1905396,71 Z M75,54 L62,54 L72.3473133,39 L75,54 Z M96.6361619,71 L101.20648,52.9896373 L102.402698,52.9896373 L110.392669,71 L118.509863,71 L109.6541,52.2487047 C112.737282,51.6217617 115.455729,50.1873921 117.809442,47.9455959 C120.163154,45.7037997 121.735333,43.0250432 122.525979,39.9093264 C123.538391,35.9196891 122.929073,32.708981 120.698025,30.2772021 C118.670129,28.0924007 114.75108,27 108.940878,27 L101.165461,27 L90,71 L96.6361619,71 Z M103,47 L106.638462,33 L109.065807,33 C115.343759,33 117.896126,35.2571429 116.722908,39.7714286 C115.470485,44.5904762 111.617562,47 105.164139,47 L103,47 Z M149.970547,71 L151.534958,64.7590674 L134.119736,64.7590674 L137.805745,50.0544041 L154.714547,50.0544041 L156.278957,43.8134715 L139.370156,43.8134715 L142.020368,33.2409326 L159.435589,33.2409326 L161,27 L137.029453,27 L126,71 L149.970547,71 Z" id="CARE" fill="#1971C2" fill-rule="nonzero"></path>
        <path d="M185.5,7 C187.156854,7 188.5,8.34314575 188.5,10 L188.5,20.5 L199,20.5 C200.656854,20.5 202,21.8431458 202,23.5 C202,25.1568542 200.656854,26.5 199,26.5 L188.5,26.5 L188.5,37 C188.5,38.6568542 187.156854,40 185.5,40 C183.843146,40 182.5,38.6568542 182.5,37 L182.5,26.5 L172,26.5 C170.343146,26.5 169,25.1568542 169,23.5 C169,21.8431458 170.343146,20.5 172,20.5 L182.5,20.5 L182.5,10 C182.5,8.34314575 183.843146,7 185.5,7 Z" id="Combined-Shape" fill="#F03E3E"></path>
    </g>
</svg>